<svg width="508" height="476" viewBox="0 0 508 476" fill="none" xmlns="http://www.w3.org/2000/svg">
<path d="M439.41 365.67C396.45 421.19 329.16 456.93 253.52 456.93C177.88 456.93 110.59 421.19 67.62 365.68C65.88 363.43 64.18 361.15 62.52 358.83C58.98 364.77 55.73 370.88 52.76 377.16C99.17 437.11 171.84 475.71 253.52 475.71C335.2 475.71 407.87 437.11 454.27 377.15C451.3 370.87 448.05 364.76 444.51 358.83C442.85 361.14 441.15 363.42 439.41 365.67Z" fill="#212758"/>
<path d="M439.41 365.67C396.45 421.19 329.16 456.93 253.52 456.93C177.88 456.93 110.59 421.19 67.62 365.68C65.88 363.43 64.18 361.15 62.52 358.83C58.98 364.77 55.73 370.88 52.76 377.16C99.17 437.11 171.84 475.71 253.52 475.71C335.2 475.71 407.87 437.11 454.27 377.15C451.3 370.87 448.05 364.76 444.51 358.83C442.85 361.14 441.15 363.42 439.41 365.67Z" fill="url(#paint0_linear_1010_1679)"/>
<path d="M207.21 138.11C162.49 138.11 126.23 174.68 126.23 219.79C126.23 221.53 126.28 223.27 126.4 224.98L210.75 138.2C209.58 138.14 208.4 138.11 207.21 138.11Z" fill="#212758"/>
<path d="M207.21 138.11C162.49 138.11 126.23 174.68 126.23 219.79C126.23 221.53 126.28 223.27 126.4 224.98L210.75 138.2C209.58 138.14 208.4 138.11 207.21 138.11Z" fill="url(#paint1_linear_1010_1679)"/>
<path d="M129.44 242.62C130.48 246.23 131.76 249.74 133.27 253.13L238.79 144.55C235.4 143.1 231.9 141.88 228.3 140.91L129.44 242.62Z" fill="#212758"/>
<path d="M129.44 242.62C130.48 246.23 131.76 249.74 133.27 253.13L238.79 144.55C235.4 143.1 231.9 141.88 228.3 140.91L129.44 242.62Z" fill="url(#paint2_linear_1010_1679)"/>
<path d="M507.01 226.34C506.61 203.93 501.28 185.86 495.1 185.96C488.92 186.07 484.22 204.32 484.62 226.73C485.02 249.14 490.35 267.21 496.53 267.11C502.71 267.01 507.41 248.75 507.01 226.34Z" fill="#212758"/>
<path d="M507.01 226.34C506.61 203.93 501.28 185.86 495.1 185.96C488.92 186.07 484.22 204.32 484.62 226.73C485.02 249.14 490.35 267.21 496.53 267.11C502.71 267.01 507.41 248.75 507.01 226.34Z" fill="url(#paint3_linear_1010_1679)"/>
<path d="M475.64 226.89C475.3 207.89 477 190.55 480.05 177.5C481.97 169.29 475.77 161.43 467.34 161.43C467.28 161.43 467.21 161.43 467.15 161.43C440.79 68.27 355.13 0 253.52 0C151.91 0 66.24 68.27 39.89 161.44C39.83 161.44 39.76 161.44 39.7 161.44C31.27 161.44 25.07 169.3 26.99 177.51C30.04 190.57 31.74 207.91 31.4 226.9C31.08 245.14 28.94 261.8 25.66 274.55C23.53 282.85 29.72 290.95 38.29 290.95H39.7C40.62 290.95 41.51 290.85 42.37 290.67C48.94 310.87 58.31 329.8 70.05 346.99C68.34 349.49 66.69 352.03 65.08 354.6C67.06 357.41 69.11 360.18 71.21 362.9C113.36 417.34 179.35 452.39 253.52 452.39C327.69 452.39 393.68 417.34 435.82 362.89C437.93 360.17 439.97 357.4 441.95 354.59C440.34 352.02 438.69 349.49 436.98 346.99C448.72 329.8 458.1 310.87 464.67 290.67C465.53 290.85 466.43 290.95 467.34 290.95H468.75C477.32 290.95 483.51 282.85 481.38 274.55C478.1 261.79 475.96 245.14 475.64 226.9V226.89ZM407.52 254.69C407.52 302 369.17 340.36 321.85 340.36H185.19C137.87 340.36 99.52 302 99.52 254.69V197.69C99.52 150.38 137.87 112.02 185.19 112.02H321.85C369.17 112.02 407.52 150.38 407.52 197.69V254.69Z" fill="#212758"/>
<path d="M475.64 226.89C475.3 207.89 477 190.55 480.05 177.5C481.97 169.29 475.77 161.43 467.34 161.43C467.28 161.43 467.21 161.43 467.15 161.43C440.79 68.27 355.13 0 253.52 0C151.91 0 66.24 68.27 39.89 161.44C39.83 161.44 39.76 161.44 39.7 161.44C31.27 161.44 25.07 169.3 26.99 177.51C30.04 190.57 31.74 207.91 31.4 226.9C31.08 245.14 28.94 261.8 25.66 274.55C23.53 282.85 29.72 290.95 38.29 290.95H39.7C40.62 290.95 41.51 290.85 42.37 290.67C48.94 310.87 58.31 329.8 70.05 346.99C68.34 349.49 66.69 352.03 65.08 354.6C67.06 357.41 69.11 360.18 71.21 362.9C113.36 417.34 179.35 452.39 253.52 452.39C327.69 452.39 393.68 417.34 435.82 362.89C437.93 360.17 439.97 357.4 441.95 354.59C440.34 352.02 438.69 349.49 436.98 346.99C448.72 329.8 458.1 310.87 464.67 290.67C465.53 290.85 466.43 290.95 467.34 290.95H468.75C477.32 290.95 483.51 282.85 481.38 274.55C478.1 261.79 475.96 245.14 475.64 226.9V226.89ZM407.52 254.69C407.52 302 369.17 340.36 321.85 340.36H185.19C137.87 340.36 99.52 302 99.52 254.69V197.69C99.52 150.38 137.87 112.02 185.19 112.02H321.85C369.17 112.02 407.52 150.38 407.52 197.69V254.69Z" fill="url(#paint4_linear_1010_1679)"/>
<path d="M11.94 185.97C5.74999 185.86 0.419987 203.94 0.0299872 226.35C-0.360013 248.76 4.32999 267.01 10.51 267.12C16.69 267.23 22.03 249.15 22.42 226.74C22.81 204.33 18.12 186.08 11.94 185.97Z" fill="#212758"/>
<path d="M11.94 185.97C5.74999 185.86 0.419987 203.94 0.0299872 226.35C-0.360013 248.76 4.32999 267.01 10.51 267.12C16.69 267.23 22.03 249.15 22.42 226.74C22.81 204.33 18.12 186.08 11.94 185.97Z" fill="url(#paint5_linear_1010_1679)"/>
<defs>
<linearGradient id="paint0_linear_1010_1679" x1="384.5" y1="46.5" x2="47.5" y2="402" gradientUnits="userSpaceOnUse">
<stop stop-color="#5A2EFB"/>
<stop offset="0.64" stop-color="#4D6BFE"/>
<stop offset="1" stop-color="#4DA0FE"/>
</linearGradient>
<linearGradient id="paint1_linear_1010_1679" x1="384.5" y1="46.5" x2="47.5" y2="402" gradientUnits="userSpaceOnUse">
<stop stop-color="#5A2EFB"/>
<stop offset="0.64" stop-color="#4D6BFE"/>
<stop offset="1" stop-color="#4DA0FE"/>
</linearGradient>
<linearGradient id="paint2_linear_1010_1679" x1="384.5" y1="46.5" x2="47.5" y2="402" gradientUnits="userSpaceOnUse">
<stop stop-color="#5A2EFB"/>
<stop offset="0.64" stop-color="#4D6BFE"/>
<stop offset="1" stop-color="#4DA0FE"/>
</linearGradient>
<linearGradient id="paint3_linear_1010_1679" x1="384.5" y1="46.5" x2="47.5" y2="402" gradientUnits="userSpaceOnUse">
<stop stop-color="#5A2EFB"/>
<stop offset="0.64" stop-color="#4D6BFE"/>
<stop offset="1" stop-color="#4DA0FE"/>
</linearGradient>
<linearGradient id="paint4_linear_1010_1679" x1="384.5" y1="46.5" x2="47.5" y2="402" gradientUnits="userSpaceOnUse">
<stop stop-color="#5A2EFB"/>
<stop offset="0.64" stop-color="#4D6BFE"/>
<stop offset="1" stop-color="#4DA0FE"/>
</linearGradient>
<linearGradient id="paint5_linear_1010_1679" x1="384.5" y1="46.5" x2="47.5" y2="402" gradientUnits="userSpaceOnUse">
<stop stop-color="#5A2EFB"/>
<stop offset="0.64" stop-color="#4D6BFE"/>
<stop offset="1" stop-color="#4DA0FE"/>
</linearGradient>
</defs>
</svg>
