<svg width="14" height="10" viewBox="0 0 14 10" fill="none" xmlns="http://www.w3.org/2000/svg">
<path d="M7.00016 10C4.55568 10 2.37487 8.45733 0.462547 5.44367C0.37826 5.31104 0.333496 5.15715 0.333496 5C0.333496 4.84285 0.37826 4.68896 0.462547 4.55633C2.37487 1.54267 4.55568 0 7.00016 0C9.44464 0 11.6255 1.54267 13.5378 4.55633C13.6221 4.68896 13.6668 4.84285 13.6668 5C13.6668 5.15715 13.6221 5.31104 13.5378 5.44367C11.6255 8.45733 9.44464 10 7.00016 10ZM7.00016 1C4.97651 1 3.10236 2.31017 1.37337 5C3.10236 7.68983 4.97651 9 7.00016 9C9.02381 9 10.898 7.68983 12.627 5C10.898 2.31017 9.02381 1 7.00016 1ZM7.00016 7.33333C5.70001 7.33333 4.64601 6.28867 4.64601 5C4.64601 3.71133 5.70001 2.66667 7.00016 2.66667C8.30032 2.66667 9.35431 3.71133 9.35431 5C9.35431 6.28867 8.30032 7.33333 7.00016 7.33333ZM7.00016 6.33333C7.74316 6.33333 8.34549 5.73633 8.34549 5C8.34549 4.26367 7.74316 3.66667 7.00016 3.66667C6.25717 3.66667 5.65484 4.26367 5.65484 5C5.65484 5.73633 6.25717 6.33333 7.00016 6.33333Z" fill="#6C71FF"/>
</svg>
