<svg width="16" height="16" viewBox="0 0 16 16" fill="none" xmlns="http://www.w3.org/2000/svg">
<path fill-rule="evenodd" clip-rule="evenodd" d="M11.1689 0.652161C10.1972 0.232523 9.12574 0 8 0C3.58172 0 0 3.58172 0 8C0 10.0146 0.744652 11.8552 1.97372 13.2617L2.70195 12.2631C1.76241 11.0969 1.2 9.61414 1.2 8C1.2 4.24446 4.24446 1.2 8 1.2C8.86014 1.2 9.68297 1.3597 10.4405 1.65106L11.1689 0.652161ZM5.72799 14.4112C6.43847 14.663 7.20323 14.8 8 14.8C11.7555 14.8 14.8 11.7555 14.8 8C14.8 6.45036 14.2816 5.02179 13.4089 3.87822L14.1417 2.8733C15.3018 4.26162 16 6.04927 16 8C16 12.4183 12.4183 16 8 16C6.93717 16 5.92274 15.7927 4.99494 15.4164L5.72799 14.4112Z" fill="#71717A"/>
<path d="M6.01798 15.0115L7.98228 11.988" stroke="#71717A" stroke-width="1.2" stroke-linecap="round"/>
<path d="M7.88656 3.91769L10.1136 1.08213" stroke="#71717A" stroke-width="1.2" stroke-linecap="round"/>
</svg>
