<svg width="32" height="33" viewBox="0 0 32 33" fill="none" xmlns="http://www.w3.org/2000/svg">
<circle cx="16" cy="16.5" r="16" fill="#D9D9D9"/>
<circle cx="16" cy="16.5" r="16" fill="url(#paint0_linear_929_1674)"/>
<path d="M21.612 8.56697L6.65177 14.3477C6.46292 14.4208 6.30011 14.5484 6.18406 14.7142C6.06802 14.8801 6.00401 15.0767 6.00018 15.279C5.99635 15.4813 6.05288 15.6802 6.16257 15.8503C6.27225 16.0204 6.43012 16.1541 6.61608 16.2342L12.6593 18.8332L15.2704 24.8841C15.3506 25.0701 15.4845 25.2281 15.6549 25.3377C15.8254 25.4474 16.0246 25.5038 16.2273 25.4998C16.43 25.4958 16.6268 25.4315 16.7928 25.3152C16.9587 25.1989 17.0862 25.0358 17.159 24.8467L22.932 9.88519C23.0029 9.70101 23.0188 9.50022 22.9777 9.3072C22.9366 9.11419 22.8403 8.93723 22.7006 8.79783C22.5608 8.65843 22.3835 8.56257 22.1903 8.52189C21.9971 8.48121 21.7962 8.49746 21.612 8.56867V8.56697ZM20.7926 10.7048L16.1714 22.6817L14.2199 18.1605L14.1485 18.0145C13.9661 17.6833 13.6783 17.4223 13.3308 17.273L8.81748 15.3313L20.7935 10.7048H20.7926Z" fill="#ECECEC"/>
<defs>
<linearGradient id="paint0_linear_929_1674" x1="32" y1="16.5" x2="0" y2="16.5" gradientUnits="userSpaceOnUse">
<stop stop-color="#5A2EFB"/>
<stop offset="0.64" stop-color="#4D6BFE"/>
<stop offset="1" stop-color="#4DA0FE"/>
</linearGradient>
</defs>
</svg>
