<svg width="17" height="16" viewBox="0 0 17 16" fill="none" xmlns="http://www.w3.org/2000/svg">
<path fill-rule="evenodd" clip-rule="evenodd" d="M3.95166 6.20884C3.95166 4.9559 4.96737 3.94019 6.22032 3.94019H13.7427C14.9956 3.94019 16.0114 4.9559 16.0114 6.20884V13.7312C16.0114 14.9842 14.9956 15.9999 13.7427 15.9999H6.22032C4.96737 15.9999 3.95166 14.9842 3.95166 13.7312V6.20884ZM6.22032 4.4178C5.23115 4.4178 4.42927 5.21968 4.42927 6.20884V13.7312C4.42927 14.7204 5.23115 15.5223 6.22032 15.5223H13.7427C14.7319 15.5223 15.5338 14.7204 15.5338 13.7312V6.20884C15.5338 5.21968 14.7319 4.4178 13.7427 4.4178H6.22032Z" fill="#71717A"/>
<path fill-rule="evenodd" clip-rule="evenodd" d="M2.39952 0.477612C1.41035 0.477612 0.608471 1.27949 0.608471 2.26866V9.79105C0.608471 10.7802 1.41035 11.5821 2.39952 11.5821H3.95176V6.20896C3.95176 4.95601 4.96747 3.9403 6.22041 3.9403H11.7129V2.26866C11.7129 1.27949 10.9111 0.477612 9.9219 0.477612H2.39952ZM0.130859 2.26866C0.130859 1.01571 1.14657 0 2.39952 0H9.9219C11.1748 0 12.1906 1.01571 12.1906 2.26866V4.41791H6.22041C5.23125 4.41791 4.42937 5.21979 4.42937 6.20896V12.0597H2.39952C1.14657 12.0597 0.130859 11.044 0.130859 9.79105V2.26866Z" fill="#71717A"/>
</svg>
