<svg width="13" height="13" viewBox="0 0 13 13" fill="none" xmlns="http://www.w3.org/2000/svg">
<path fill-rule="evenodd" clip-rule="evenodd" d="M2.925 0.687927C1.66855 0.687927 0.65 1.76591 0.65 3.09567V9.28701C0.65 9.85691 1.08652 10.3189 1.625 10.3189H1.98456C2.68344 10.3189 3.25 10.9185 3.25 11.6582C3.25 12.2077 3.85332 12.5103 4.25516 12.1623L5.77695 10.8445C6.16951 10.5046 6.6611 10.3189 7.16831 10.3189H10.075C11.3314 10.3189 12.35 9.24092 12.35 7.91116V3.7836C12.35 3.59363 12.4955 3.43963 12.675 3.43963C12.8545 3.43963 13 3.59363 13 3.7836V7.91116C13 9.62085 11.6904 11.0068 10.075 11.0068H7.16831C6.81115 11.0068 6.46499 11.1376 6.18856 11.377L4.66677 12.6947C3.84052 13.4102 2.6 12.788 2.6 11.6582C2.6 11.2985 2.32446 11.0068 1.98456 11.0068H1.625C0.727537 11.0068 0 10.2368 0 9.28701V3.09567C0 1.38598 1.30957 0 2.925 0H8.775C8.95449 0 9.1 0.153998 9.1 0.343963C9.1 0.533929 8.95449 0.687927 8.775 0.687927H2.925Z" fill="white"/>
<path fill-rule="evenodd" clip-rule="evenodd" d="M10.4 0.343963C10.5795 0.343963 10.725 0.497961 10.725 0.687927V3.43963C10.725 3.6296 10.5795 3.7836 10.4 3.7836C10.2205 3.7836 10.075 3.6296 10.075 3.43963V0.687927C10.075 0.497961 10.2205 0.343963 10.4 0.343963Z" fill="white"/>
<path fill-rule="evenodd" clip-rule="evenodd" d="M12.025 2.06378C12.025 2.25375 11.8795 2.40774 11.7 2.40774H9.1C8.92051 2.40774 8.775 2.25375 8.775 2.06378C8.775 1.87382 8.92051 1.71982 9.1 1.71982H11.7C11.8795 1.71982 12.025 1.87382 12.025 2.06378Z" fill="white"/>
</svg>
