<svg width="10" height="10" viewBox="0 0 10 10" fill="none" xmlns="http://www.w3.org/2000/svg">
<path d="M9.64286 3.47262C9.54814 3.47262 9.4573 3.50965 9.39032 3.57556C9.32334 3.64147 9.28571 3.73086 9.28571 3.82407V8.94567C9.28571 9.03888 9.24809 9.12827 9.18111 9.19418C9.11413 9.26009 9.02329 9.29711 8.92857 9.29711H1.07143C0.976708 9.29711 0.885868 9.26009 0.818891 9.19418C0.751913 9.12827 0.714286 9.03888 0.714286 8.94567V1.21389C0.714286 1.12068 0.751913 1.03129 0.818891 0.96538C0.885868 0.899472 0.976708 0.862445 1.07143 0.862445H5.86607C5.96079 0.862445 6.05163 0.825418 6.11861 0.759509C6.18559 0.6936 6.22321 0.604209 6.22321 0.511C6.22321 0.417791 6.18559 0.3284 6.11861 0.262491C6.05163 0.196583 5.96079 0.159556 5.86607 0.159556H1.07143C0.787268 0.159556 0.514746 0.270637 0.313814 0.468363C0.112882 0.666089 0 0.934263 0 1.21389V8.94567C0 9.22529 0.112882 9.49347 0.313814 9.69119C0.514746 9.88892 0.787268 10 1.07143 10H8.92857C9.21273 10 9.48525 9.88892 9.68619 9.69119C9.88712 9.49347 10 9.22529 10 8.94567V3.82407C10 3.73086 9.96237 3.64147 9.8954 3.57556C9.82842 3.50965 9.73758 3.47262 9.64286 3.47262Z" fill="#CB8BD0"/>
<path d="M1.87071 7.10515C1.83535 7.17763 1.82177 7.25854 1.83159 7.33835C1.8414 7.41817 1.87419 7.49356 1.9261 7.55564C1.978 7.61773 2.04686 7.66392 2.12456 7.68878C2.20226 7.71363 2.28556 7.71611 2.36464 7.69593L4.01643 7.27455L9.89393 1.49118L8.37857 0L2.52714 5.75807L1.87071 7.10515ZM3.11857 6.17031L8.37857 0.994236L8.88357 1.49118L3.64929 6.64195L2.78071 6.86336L3.11857 6.17031Z" fill="#CB8BD0"/>
</svg>
