<svg width="19" height="19" viewBox="0 0 19 19" fill="none" xmlns="http://www.w3.org/2000/svg">
<path d="M11.3376 14H7.64315C7.00175 14 6.41166 13.6649 6.07813 13.0979L4.2309 9.90206C3.92303 9.33505 3.92303 8.66495 4.2309 8.09794L6.07813 4.90206C6.41166 4.33505 7.00175 4 7.64315 4H11.3376C11.6198 4 11.8507 4.23196 11.8507 4.51546C11.8507 4.79897 11.6198 5.03093 11.3376 5.03093H7.64315C7.36093 5.03093 7.10437 5.18557 6.97609 5.41753L5.12886 8.6134C5.00058 8.84536 5.00058 9.15464 5.12886 9.3866L6.97609 12.6082C7.10437 12.8402 7.36093 12.9948 7.64315 12.9948H11.3376C11.6198 12.9948 11.8764 12.8402 12.0047 12.6082L13.8519 9.3866C13.9802 9.15464 13.9802 8.84536 13.8519 8.6134L12.4408 6.16495C12.2869 5.93299 12.3638 5.59794 12.5948 5.4433C12.8257 5.28866 13.1592 5.36598 13.3131 5.59794L13.3388 5.62371L14.7499 8.07217C15.0834 8.63918 15.0834 9.30928 14.7499 9.87629L12.9026 13.0722C12.5691 13.6649 11.979 14 11.3376 14Z" fill="#D9D9D9"/>
<path d="M9.5 11C8.66429 11 8 10.3357 8 9.5C8 8.66429 8.66429 8 9.5 8C10.3357 8 11 8.66429 11 9.5C11 10.3357 10.3357 11 9.5 11ZM9.5 8.40714C8.9 8.40714 8.42857 8.87857 8.42857 9.47857C8.42857 10.0786 8.9 10.55 9.5 10.55C10.1 10.55 10.5714 10.0786 10.5714 9.47857C10.5714 8.87857 10.1 8.40714 9.5 8.40714Z" fill="#D9D9D9"/>
<circle cx="9.5" cy="9.5" r="9" stroke="#373737"/>
</svg>
